<svg width="640" height="480" xmlns="http://www.w3.org/2000/svg">
 <g>
  <title>Layer 1</title>
  <path fill="#006600" fill-rule="evenodd" id="path3" d="m57.76136,7.45647c-5.22988,-6.31866 -54.69971,26.61469 -51.88934,32.80307c-1.94492,-5.2764 47.69241,-37.64118 51.88934,-32.80307zm2.64286,-0.02306c0.17681,-0.1582 -0.02792,-1.8288 -0.12097,-1.75435c0.09305,-0.07445 -1.11424,-0.70101 -1.77636,-0.91127c-11.85564,-5.93713 -26.91354,-5.74241 -38.58306,2.23269c-10.72032,7.3237 -16.27591,19.87727 -16.00604,32.41223c-3.3501,-1.56338 -3.37802,-0.8096 0.03723,1.06087c0.25125,5.16474 1.18184,5.53697 1.22836,0.6421c12.33024,6.20699 27.81515,6.04879 39.51259,-2.14965c10.59004,-7.40744 16.39311,-19.5884 15.70825,-31.53262zm-17.98818,29.36529c-10.76685,7.51912 -24.79075,8.20775 -36.54402,3.46178l-0.66072,-0.27918c0.42807,-11.73466 5.91852,-23.2739 15.95951,-30.14161c11.28798,-7.72384 25.3491,-8.43108 36.9814,-3.10815c0,11.5197 -5.45322,22.87375 -15.73617,30.06716z"/>
 </g>
</svg>